<?xml version="1.0" encoding="UTF-8"?>
<svg width="512px" height="512px" viewBox="0 0 512 512" xmlns="http://www.w3.org/2000/svg" xmlns:xlink="http://www.w3.org/1999/xlink" version="1.1">
 <!-- Generated by Pixelmator Pro 1.5.4 -->
 <g id="group">
  <defs>
   <path id="Путь" d="M505 257 C505 291.8 504.3 326.7 505.2 361.5 506.7 423.1 468 470.7 418.7 491.9 398.9 500.4 378.1 504.9 356.6 504.9 289.3 505 221.9 505.9 154.6 504.6 103.9 503.6 62.2 482.4 32.3 440.6 16.6 418.6 9.1 393.6 9.1 366.5 9.1 294.8 9.1 223.2 9.1 151.5 9.1 93 37.6 52.1 88.2 25.5 110.2 14 134.1 9.1 159 9 224.3 9 289.7 8.6 355 9.2 405.7 9.6 448 29 479.2 69.8 496.6 92.6 505 118.8 505 147.6 Z M46 257 L46 367 C46 383.4 49.8 398.8 58.3 412.7 80.6 449.2 114.3 467 156.1 467.7 223.2 468.7 290.4 468.1 357.6 467.9 374.1 467.9 390.1 464.5 405 457.4 445.6 438 468.3 407.1 468.1 360.7 467.7 289.7 468 218.7 468 147.7 468 127.6 462.3 109.2 450.4 93 427.4 61.9 395.6 46.6 357.6 46.2 290.6 45.4 223.6 45.9 156.6 46 142.3 46 128.5 48.9 115.1 53.9 78.3 67.6 44.1 102.3 45.7 153.4 46.9 188 46 222.5 46 257 Z"/>
  </defs>
  <defs>
   <linearGradient id="linear-gradient" gradientUnits="userSpaceOnUse" x1="213.394" y1="402.353" x2="213.394" y2="96.74">
    <stop offset="0" stop-color="#e1e1e1" stop-opacity="1"/>
    <stop offset="1" stop-color="#ffffff" stop-opacity="1"/>
   </linearGradient>
  </defs>
  <use id="Путь-1" xlink:href="#Путь" fill="url(#linear-gradient)" fill-opacity="1" stroke="none"/>
  <defs>
   <linearGradient id="linear-gradient-1" gradientUnits="userSpaceOnUse" x1="214.403" y1="397.025" x2="214.403" y2="105.894">
    <stop offset="0" stop-color="#f4f4f4" stop-opacity="1"/>
    <stop offset="1" stop-color="#ececec" stop-opacity="1"/>
   </linearGradient>
  </defs>
  <defs>
   <path id="stroke-path" d="M358.406 501.906 L374.328 500.859 389.563 498.25 397.094 496.359 408.328 492.766 423.141 486.594 431.891 482.031 438.109 478.313 450.391 469.656 458.031 463.234 463.281 458.234 473.281 447.125 479.313 439.016 483.328 432.828 490.406 419.547 495.172 407.656 498.156 397.734 500.75 384.953 501.938 373.969 502.234 365.859 501.75 328.875 502 257 501.984 147.734 501.516 135.984 500.219 125.609 498.188 115.781 495.422 106.328 491.703 96.766 487.375 87.938 482.031 79 475.313 69.703 469.516 62.703 459.969 52.734 453.625 46.984 443.156 38.844 436.172 34.219 424.938 27.969 413.5 22.875 401.188 18.688 393 16.547 379.906 14.078 371.047 13.016 357.188 12.234 293.734 11.891 156.859 12.031 138.438 13.266 125.453 15.422 112.406 18.781 105.047 21.281 96.734 24.703 82.656 31.984 73.953 37.313 66.891 42.172 53.734 52.875 43.938 62.734 38.031 69.891 34.063 75.344 27.078 86.906 23 95.328 20.516 101.531 16.313 115.203 14.297 124.75 13.25 131.906 12.141 147.625 12.094 366.391 12.516 377.469 13.672 387.297 15.453 396.453 18.063 405.828 21.25 414.516 25.328 423.406 29.984 431.703 36.078 440.719 41.891 448.188 50.969 458.344 57.219 464.375 67.172 472.672 74.297 477.734 85.063 484.219 92.766 488.063 104.5 492.844 116.906 496.625 129.719 499.344 143.188 501.031 154.75 501.609 217.719 502.281 Z M154.031 470.672 L142.344 469.844 131.047 468.094 120.25 465.406 113.25 463.078 103.266 458.781 96.828 455.359 87.703 449.469 81.859 444.938 71.063 434.703 61.297 422.703 55.734 414.25 51.922 407.375 47.344 396.031 45.656 390.047 43.922 380.984 43 368.656 43 260.016 42.969 260.016 43.297 185.859 42.672 147.391 43.906 133.5 45.188 126.797 47.5 118.297 51.328 108.281 56.141 98.906 62.984 88.625 70.203 80.047 78.922 71.734 88.375 64.469 98.359 58.297 108.75 53.203 120.484 48.859 130.953 45.984 141.609 44.031 152.438 43.078 294.781 42.781 345.078 43.063 366.609 43.578 380.484 45.344 390.531 47.641 400.172 50.734 409.453 54.672 418.328 59.438 426.766 65.047 434.797 71.484 442.344 78.734 449.438 86.844 453.953 92.813 458.125 99.266 463.234 109.234 465.938 116.219 468.047 123.344 469.609 130.688 470.844 141.922 470.969 367.25 470.328 375.75 468.359 387.75 465.188 399.031 460.844 409.547 455.375 419.313 448.766 428.328 441.094 436.609 432.391 444.188 422.672 451.063 412 457.266 401.938 462.078 390.109 466.313 377.922 469.172 362.391 470.828 244.203 471.266 Z"/>
  </defs>
  <use id="Путь-2" stroke="url(#linear-gradient-1)" stroke-opacity="1" stroke-linecap="round" fill="none" stroke-width="6" xlink:href="#stroke-path"/>
  <defs>
   <path id="Путь-3" d="M257.6 363 C193.1 363 141.1 311.6 141 247.6 140.9 184.6 193.3 133 257.4 133 321.7 132.9 373.9 184.4 374 247.9 374 311.3 321.9 362.9 257.6 363 Z M257.6 326 C301.5 326 337.1 290.9 337 247.7 336.9 204.9 301.3 169.9 257.6 169.9 213.7 169.9 177.9 204.8 177.9 247.9 178 291.1 213.7 326.1 257.6 326 Z"/>
  </defs>
  <defs>
   <linearGradient id="linear-gradient-2" gradientUnits="userSpaceOnUse" x1="236.941" y1="315.305" x2="236.941" y2="173.711">
    <stop offset="0" stop-color="#e1e1e1" stop-opacity="1"/>
    <stop offset="1" stop-color="#ffffff" stop-opacity="1"/>
   </linearGradient>
  </defs>
  <use id="Путь-4" xlink:href="#Путь-3" fill="url(#linear-gradient-2)" fill-opacity="1" stroke="none"/>
  <defs>
   <linearGradient id="linear-gradient-3" gradientUnits="userSpaceOnUse" x1="237.415" y1="312.837" x2="237.415" y2="177.953">
    <stop offset="0" stop-color="#f4f4f4" stop-opacity="1"/>
    <stop offset="1" stop-color="#ececec" stop-opacity="1"/>
   </linearGradient>
  </defs>
  <defs>
   <path id="stroke-path-1" d="M264.891 359.766 L273.438 358.906 281.828 357.406 290.016 355.313 297.922 352.656 305.516 349.469 312.766 345.781 319.969 341.453 326.469 336.891 332.859 331.672 340.734 324.063 345.906 318.141 350.938 311.5 355.359 304.672 359.156 297.719 362.656 290.078 365.516 282.359 367.75 274.625 369.484 266.203 370.531 258.047 370.984 249.234 370.75 240.703 369.875 232.25 368.391 224.094 366.25 215.922 363.531 208.031 360.391 200.703 356.609 193.453 352.234 186.344 347.516 179.828 342.328 173.625 336.828 167.922 326.359 158.984 315.063 151.469 302.891 145.313 289.734 140.578 276.125 137.5 261.797 136.078 247.266 136.469 233.188 138.578 219.719 142.375 207.078 147.656 195.203 154.391 184.172 162.516 174.375 171.719 165.75 182.016 158.313 193.422 152.391 205.469 147.891 218.578 145.063 232.125 144 246.125 144.469 257.688 146.625 271.672 150.453 285.078 155.859 297.719 162.625 309.406 170.844 320.297 176.219 326.141 182.203 331.781 192.922 340.109 204.719 347.172 217.109 352.703 230.594 356.828 244.469 359.266 257.672 360.016 Z M254.594 328.875 L250.203 328.703 242 327.594 234.031 325.703 226.422 323.078 219.141 319.766 212.281 315.766 205.859 311.188 199.906 306.016 193.25 298.844 188.547 292.516 184.484 285.781 181.078 278.625 178.359 271.125 176.391 263.297 175.234 255.203 174.891 247.875 175.703 236.563 178.328 224.75 182.641 213.641 188.5 203.375 195.75 194.156 201.313 188.594 205.875 184.734 215.641 178.094 226.406 172.875 237.969 169.203 250.188 167.219 260.781 166.969 273.141 168.344 284.891 171.484 295.891 176.219 305.984 182.406 315.047 189.922 322.938 198.625 329.484 208.391 334.578 219.047 338.078 230.469 339.828 242.531 339.688 254.984 337.688 267.047 333.953 278.422 328.625 289.031 321.875 298.625 317.953 303.109 312.281 308.563 302.875 315.688 292.438 321.422 281.141 325.656 269.125 328.234 254.594 329.234 Z"/>
  </defs>
  <use id="Путь-5" stroke="url(#linear-gradient-3)" stroke-opacity="1" stroke-linecap="round" fill="none" stroke-width="6" xlink:href="#stroke-path-1"/>
  <defs>
   <path id="Путь-6" d="M387.5 98 C401 98 412 109.5 412 123.6 411.9 137.7 400.8 149.1 387.3 149 374 148.9 363.1 137.5 363.1 123.7 363 109.6 374 98 387.5 98 Z"/>
  </defs>
  <defs>
   <linearGradient id="linear-gradient-4" gradientUnits="userSpaceOnUse" x1="383.235" y1="138.425" x2="383.235" y2="107.027">
    <stop offset="0" stop-color="#e1e1e1" stop-opacity="1"/>
    <stop offset="1" stop-color="#ffffff" stop-opacity="1"/>
   </linearGradient>
  </defs>
  <use id="Путь-7" xlink:href="#Путь-6" fill="url(#linear-gradient-4)" fill-opacity="1" stroke="none"/>
  <defs>
   <linearGradient id="linear-gradient-5" gradientUnits="userSpaceOnUse" x1="383.334" y1="137.877" x2="383.334" y2="107.968">
    <stop offset="0" stop-color="#f4f4f4" stop-opacity="1"/>
    <stop offset="1" stop-color="#ececec" stop-opacity="1"/>
   </linearGradient>
  </defs>
  <defs>
   <path id="stroke-path-2" d="M392.156 145.438 L396.141 144.078 399.719 141.953 402.828 139.188 405.469 135.734 407.406 131.875 408.625 127.547 408.984 123.656 408.406 118.484 407.031 114.234 405.016 110.547 402.219 107.188 399.016 104.563 395.328 102.578 391.234 101.359 387.5 101.016 383.75 101.359 379.672 102.578 376.016 104.563 372.719 107.297 370.078 110.516 367.969 114.391 366.641 118.547 366.109 123.172 366.422 127.594 367.594 131.844 369.484 135.656 372.031 139.047 375.094 141.828 378.672 143.984 382.609 145.406 387.266 146 Z"/>
  </defs>
  <use id="Путь-8" stroke="url(#linear-gradient-5)" stroke-opacity="1" stroke-linecap="round" fill="none" stroke-width="6" xlink:href="#stroke-path-2"/>
 </g>
</svg>
