<?xml version="1.0" encoding="UTF-8"?>
<svg width="64px" height="64px" viewBox="0 0 64 64" xmlns="http://www.w3.org/2000/svg" xmlns:xlink="http://www.w3.org/1999/xlink" version="1.1">
 <!-- Generated by Pixelmator Pro 1.5.4 -->
 <g id="group">
  <defs>
   <path id="Путь" d="M32 0 C22.626 0 15 7.626 15 17 L15 47 C15 56.374 22.626 64 32 64 41.374 64 49 56.374 49 47 L49 17 C49 7.626 41.374 0 32 0 Z M47 47 C47 55.271 40.271 62 32 62 23.729 62 17 55.271 17 47 L17 17 C17 8.729 23.729 2 32 2 40.271 2 47 8.729 47 17 Z"/>
  </defs>
  <defs>
   <linearGradient id="linear-gradient" gradientUnits="userSpaceOnUse" x1="29" y1="50.728" x2="29" y2="11.328">
    <stop offset="0" stop-color="#e1e1e1" stop-opacity="1"/>
    <stop offset="1" stop-color="#ffffff" stop-opacity="1"/>
   </linearGradient>
  </defs>
  <use id="Путь-1" xlink:href="#Путь" fill="url(#linear-gradient)" fill-opacity="1" stroke="none"/>
  <defs>
   <linearGradient id="linear-gradient-1" gradientUnits="userSpaceOnUse" x1="29.069" y1="50.041" x2="29.069" y2="12.509">
    <stop offset="0" stop-color="#f4f4f4" stop-opacity="1"/>
    <stop offset="1" stop-color="#ececec" stop-opacity="1"/>
   </linearGradient>
  </defs>
  <defs>
   <path id="stroke-path" d=""/>
  </defs>
  <use id="Путь-2" stroke="url(#linear-gradient-1)" stroke-opacity="1" stroke-linecap="round" fill="none" stroke-width="6" xlink:href="#stroke-path"/>
  <defs>
   <path id="Путь-3" d="M31 10 L33 10 33 18 31 18 Z"/>
  </defs>
  <defs>
   <linearGradient id="linear-gradient-2" gradientUnits="userSpaceOnUse" x1="31.824" y1="16.341" x2="31.824" y2="11.416">
    <stop offset="0" stop-color="#e1e1e1" stop-opacity="1"/>
    <stop offset="1" stop-color="#ffffff" stop-opacity="1"/>
   </linearGradient>
  </defs>
  <use id="Путь-4" xlink:href="#Путь-3" fill="url(#linear-gradient-2)" fill-opacity="1" stroke="none"/>
  <defs>
   <linearGradient id="linear-gradient-3" gradientUnits="userSpaceOnUse" x1="31.828" y1="16.255" x2="31.828" y2="11.564">
    <stop offset="0" stop-color="#f4f4f4" stop-opacity="1"/>
    <stop offset="1" stop-color="#ececec" stop-opacity="1"/>
   </linearGradient>
  </defs>
  <defs>
   <path id="stroke-path-1" d=""/>
  </defs>
  <use id="Путь-5" stroke="url(#linear-gradient-3)" stroke-opacity="1" stroke-linecap="round" fill="none" stroke-width="6" xlink:href="#stroke-path-1"/>
 </g>
</svg>
