<?xml version="1.0" encoding="UTF-8"?>
<svg width="512px" height="472px" viewBox="0 0 512 472" xmlns="http://www.w3.org/2000/svg" xmlns:xlink="http://www.w3.org/1999/xlink" version="1.1">
 <!-- Generated by Pixelmator Pro 1.5.4 -->
 <defs>
  <path id="Путь" d="M470.435 45.422 L16.827 221.249 C-1.426 229.436 -7.6 245.834 12.415 254.733 L128.786 291.906 410.153 117.116 C425.516 106.143 441.244 109.069 427.71 121.14 L186.053 341.075 178.462 434.151 C185.493 448.522 198.367 448.589 206.579 441.446 L273.437 377.857 387.942 464.044 C414.537 479.87 429.008 469.657 434.729 440.65 L509.835 83.18 C517.633 47.474 504.334 31.743 470.435 45.422 Z"/>
 </defs>
 <defs>
  <linearGradient id="linear-gradient" gradientUnits="userSpaceOnUse" x1="210.824" y1="382.11" x2="210.824" y2="116.806">
   <stop offset="0" stop-color="#e1e1e1" stop-opacity="1"/>
   <stop offset="1" stop-color="#ffffff" stop-opacity="1"/>
  </linearGradient>
 </defs>
 <use id="Путь-1" xlink:href="#Путь" fill="url(#linear-gradient)" fill-opacity="1" stroke="none"/>
 <defs>
  <linearGradient id="linear-gradient-1" gradientUnits="userSpaceOnUse" x1="211.865" y1="377.484" x2="211.865" y2="124.752">
   <stop offset="0" stop-color="#f4f4f4" stop-opacity="1"/>
   <stop offset="1" stop-color="#ececec" stop-opacity="1"/>
  </linearGradient>
 </defs>
 <defs>
  <path id="stroke-path" d="M411.656 468.375 L415.984 467.344 418.219 466.25 421.75 463.438 423.672 461.172 426.547 456.484 428.953 450.75 430.922 444 507.813 77.938 508.875 69.063 508.984 63.984 508.625 59.656 507.078 53.469 505.625 50.484 504.391 48.75 501.688 46.281 499.141 44.906 496.047 43.984 492.391 43.563 488.219 43.703 484 44.344 478.922 45.609 471.422 48.266 18.078 223.969 11.594 227.625 7.297 231.281 4.484 235.063 3.156 238.781 3.297 242.234 4.938 245.672 8.516 249.109 13.641 251.984 128.375 288.625 412.281 112.156 418.234 109.297 423.813 107.672 428.781 107.297 432.891 108.391 434.797 110.063 435.859 112.453 435.5 115.906 433.578 119.281 430.453 122.719 188.938 342.5 181.516 433.438 183.391 436.594 185.516 439.078 187.641 440.844 190.75 442.438 192.906 442.953 196.078 443.031 199.203 442.344 202.219 440.922 204.672 439.141 273.203 373.938 389.516 461.484 395.219 464.563 399.531 466.406 403.328 467.609 408.734 468.453 Z"/>
 </defs>
 <use id="Путь-2" stroke="url(#linear-gradient-1)" stroke-opacity="1" stroke-linecap="round" fill="none" stroke-width="6" xlink:href="#stroke-path"/>
</svg>
