<?xml version="1.0" encoding="UTF-8"?>
<svg width="90px" height="90px" viewBox="0 0 90 90" xmlns="http://www.w3.org/2000/svg" xmlns:xlink="http://www.w3.org/1999/xlink" version="1.1">
 <!-- Generated by Pixelmator Pro 1.5.4 -->
 <g id="group">
  <defs>
   <path id="WhatsApp" d="M90 43.841 C90 68.054 70.221 87.682 45.818 87.682 38.071 87.682 30.793 85.702 24.461 82.227 L0 90 7.975 66.478 C3.952 59.872 1.635 52.124 1.635 43.841 1.635 19.628 21.416 0 45.818 0 70.223 0 90 19.628 90 43.841 Z M45.818 6.982 C25.334 6.982 8.672 23.517 8.672 43.841 8.672 51.906 11.301 59.375 15.748 65.451 L11.107 79.14 25.382 74.603 C31.247 78.454 38.273 80.7 45.819 80.7 66.3 80.7 82.965 64.167 82.965 43.843 82.965 23.519 66.301 6.982 45.818 6.982 Z M68.129 53.938 C67.856 53.491 67.135 53.221 66.053 52.684 64.969 52.147 59.643 49.546 58.653 49.189 57.66 48.831 56.936 48.651 56.215 49.726 55.494 50.802 53.418 53.221 52.785 53.938 52.153 54.657 51.522 54.747 50.438 54.209 49.356 53.672 45.867 52.536 41.73 48.876 38.511 46.028 36.337 42.512 35.705 41.435 35.074 40.36 35.639 39.779 36.18 39.244 36.668 38.762 37.264 37.989 37.805 37.362 38.348 36.734 38.528 36.287 38.887 35.569 39.25 34.852 39.069 34.225 38.797 33.686 38.527 33.149 36.359 27.861 35.457 25.709 34.555 23.559 33.654 23.917 33.021 23.917 32.39 23.917 31.667 23.827 30.945 23.827 30.223 23.827 29.049 24.096 28.056 25.171 27.064 26.247 24.267 28.847 24.267 34.134 24.267 39.422 28.146 44.531 28.689 45.247 29.23 45.963 36.179 57.167 47.189 61.47 58.2 65.771 58.2 64.336 60.186 64.156 62.17 63.977 66.592 61.557 67.498 59.049 68.398 56.537 68.398 54.386 68.129 53.938 Z"/>
  </defs>
  <defs>
   <linearGradient id="linear-gradient" gradientUnits="userSpaceOnUse" x1="37.059" y1="71.337" x2="37.059" y2="15.931">
    <stop offset="0" stop-color="#e1e1e1" stop-opacity="1"/>
    <stop offset="1" stop-color="#ffffff" stop-opacity="1"/>
   </linearGradient>
  </defs>
  <use id="WhatsApp-1" xlink:href="#WhatsApp" fill="url(#linear-gradient)" fill-opacity="1" stroke="none"/>
  <defs>
   <linearGradient id="linear-gradient-1" gradientUnits="userSpaceOnUse" x1="37.242" y1="70.371" x2="37.242" y2="17.59">
    <stop offset="0" stop-color="#f4f4f4" stop-opacity="1"/>
    <stop offset="1" stop-color="#ececec" stop-opacity="1"/>
   </linearGradient>
  </defs>
  <defs>
   <path id="stroke-path" d="M24.688 79.016 L29.906 81.531 34.688 83.188 39.875 84.266 45.031 84.688 51.141 84.344 55.078 83.656 58.953 82.563 64.609 80.188 68.047 78.234 72.781 74.719 76.922 70.609 80.531 65.813 83.344 60.688 85.438 55.016 86.641 49.141 86.984 43.969 86.656 38.594 85.453 32.734 84.172 28.953 81.484 23.438 79.484 20.328 75.594 15.641 71.25 11.734 68 9.438 62.813 6.641 57.047 4.547 51 3.328 46.953 3.016 42.688 3.125 36.469 4.063 32.594 5.156 27.094 7.453 20.344 11.75 15.984 15.688 13.422 18.625 9.125 25.266 6.203 32.641 4.75 40.703 4.953 48.844 6.828 57.031 8.313 60.766 11.219 66.219 4.75 85.344 Z M36.203 82.563 L29.359 80.219 25.063 77.859 10.25 82.563 7.656 79.922 12.422 65.844 10.453 62.734 8.469 58.516 6.641 52.609 5.859 47.875 5.672 42.797 6.266 36.828 7.203 32.891 9.219 27.438 11.984 22.375 15.469 17.75 19.547 13.703 24.188 10.266 29.297 7.5 34.844 5.5 40.688 4.297 45.891 3.969 54.844 5 62.313 7.5 69.031 11.328 74.859 16.328 79.625 22.359 83.172 29.234 85.344 36.797 85.969 44.875 84.953 52.859 82.422 60.25 78.547 66.922 73.5 72.703 67.453 77.406 62.313 80.203 56.781 82.203 50.891 83.406 43.531 83.656 Z M59.969 61.156 L62.172 60.203 63.906 58.938 64.641 57.969 65.188 55.797 59.844 53.031 57.984 52.313 54.453 56.625 51.188 57.781 45.125 55.016 39.719 51.156 35.766 46.859 32.359 41.641 32.656 38.797 35.688 35.125 35.844 34.781 32.719 27 32.641 26.906 31.094 26.859 30.625 27.016 29.125 28.5 28.094 30.188 27.406 32.438 27.281 34.484 27.672 36.844 28.563 39.25 33.359 46.625 39.328 53.016 45.156 57.188 53.234 60.484 57.938 61.469 Z"/>
  </defs>
  <use id="WhatsApp-2" stroke="url(#linear-gradient-1)" stroke-opacity="1" stroke-linecap="round" fill="none" stroke-width="6" xlink:href="#stroke-path"/>
 </g>
 <g id="group-1"/>
 <g id="group-2"/>
 <g id="group-3"/>
 <g id="group-4"/>
 <g id="group-5"/>
 <g id="group-6"/>
 <g id="group-7"/>
 <g id="group-8"/>
 <g id="group-9"/>
 <g id="group-10"/>
 <g id="group-11"/>
 <g id="group-12"/>
 <g id="group-13"/>
 <g id="group-14"/>
 <g id="group-15"/>
</svg>
