<svg width="497" height="498" viewBox="0 0 497 498" fill="none" xmlns="http://www.w3.org/2000/svg">
<path d="M496 249C496 283.8 495.3 318.7 496.2 353.5C497.7 415.1 459 462.7 409.7 483.9C389.9 492.4 369.1 496.9 347.6 496.9C280.3 497 212.9 497.9 145.6 496.6C94.9 495.6 53.2 474.4 23.3 432.6C7.60001 410.6 0.100006 385.6 0.100006 358.5C0.100006 286.8 0.100006 215.2 0.100006 143.5C0.100006 85 28.6 44.1 79.2 17.5C101.2 6 125.1 1.1 150 0.999997C215.3 0.999997 280.7 0.599997 346 1.2C396.7 1.6 439 21 470.2 61.8C487.6 84.6 496 110.8 496 139.6V249ZM37 249V359C37 375.4 40.8 390.8 49.3 404.7C71.6 441.2 105.3 459 147.1 459.7C214.2 460.7 281.4 460.1 348.6 459.9C365.1 459.9 381.1 456.5 396 449.4C436.6 430 459.3 399.1 459.1 352.7C458.7 281.7 459 210.7 459 139.7C459 119.6 453.3 101.2 441.4 85C418.4 53.9 386.6 38.6 348.6 38.2C281.6 37.4 214.6 37.9 147.6 38C133.3 38 119.5 40.9 106.1 45.9C69.3 59.6 35.1 94.3 36.7 145.4C37.9 180 37 214.5 37 249Z" fill="url(#paint0_linear)"/>
<path d="M349.406 493.906L365.328 492.859L380.563 490.25L388.094 488.359L399.328 484.766L414.141 478.594L422.891 474.031L429.109 470.313L441.391 461.656L449.031 455.234L454.281 450.234L464.281 439.125L470.313 431.016L474.328 424.828L481.406 411.547L486.172 399.656L489.156 389.734L491.75 376.953L492.938 365.969L493.234 357.859L492.75 320.875L493 249L492.984 139.734L492.516 127.984L491.219 117.609L489.188 107.781L486.422 98.328L482.703 88.766L478.375 79.938L473.031 71L466.313 61.703L460.516 54.703L450.969 44.734L444.625 38.984L434.156 30.844L427.172 26.219L415.938 19.969L404.5 14.875L392.188 10.688L384 8.54699L370.906 6.07799L362.047 5.01599L348.188 4.23399L284.734 3.89099L147.859 4.03099L129.438 5.26599L116.453 7.42199L103.406 10.781L96.047 13.281L87.734 16.703L73.656 23.984L64.953 29.313L57.891 34.172L44.734 44.875L34.938 54.734L29.031 61.891L25.063 67.344L18.078 78.906L14 87.328L11.516 93.531L7.31299 107.203L5.29699 116.75L4.24999 123.906L3.14099 139.625L3.09399 358.391L3.51599 369.469L4.67199 379.297L6.45299 388.453L9.06299 397.828L12.25 406.516L16.328 415.406L20.984 423.703L27.078 432.719L32.891 440.188L41.969 450.344L48.219 456.375L58.172 464.672L65.297 469.734L76.063 476.219L83.766 480.063L95.5 484.844L107.906 488.625L120.719 491.344L134.188 493.031L145.75 493.609L208.719 494.281L349.406 493.906ZM145.031 462.672L133.344 461.844L122.047 460.094L111.25 457.406L104.25 455.078L94.266 450.781L87.828 447.359L78.703 441.469L72.859 436.938L62.063 426.703L52.297 414.703L46.734 406.25L42.922 399.375L38.344 388.031L36.656 382.047L34.922 372.984L34 360.656V252.016H33.969L34.297 177.859L33.672 139.391L34.906 125.5L36.188 118.797L38.5 110.297L42.328 100.281L47.141 90.906L53.984 80.625L61.203 72.047L69.922 63.734L79.375 56.469L89.359 50.297L99.75 45.203L111.484 40.859L121.953 37.984L132.609 36.031L143.438 35.078L285.781 34.781L336.078 35.063L357.609 35.578L371.484 37.344L381.531 39.641L391.172 42.734L400.453 46.672L409.328 51.438L417.766 57.047L425.797 63.484L433.344 70.734L440.438 78.844L444.953 84.813L449.125 91.266L454.234 101.234L456.938 108.219L459.047 115.344L460.609 122.688L461.844 133.922L461.969 359.25L461.328 367.75L459.359 379.75L456.188 391.031L451.844 401.547L446.375 411.313L439.766 420.328L432.094 428.609L423.391 436.188L413.672 443.063L403 449.266L392.938 454.078L381.109 458.313L368.922 461.172L353.391 462.828L235.203 463.266L145.031 462.672Z" stroke="url(#paint1_linear)" stroke-width="6" stroke-linecap="round"/>
<path d="M248.6 355C184.1 355 132.1 303.6 132 239.6C131.9 176.6 184.3 125 248.4 125C312.7 124.9 364.9 176.4 365 239.9C365 303.3 312.9 354.9 248.6 355ZM248.6 318C292.5 318 328.1 282.9 328 239.7C327.9 196.9 292.3 161.9 248.6 161.9C204.7 161.9 168.9 196.8 168.9 239.9C169 283.1 204.7 318.1 248.6 318Z" fill="url(#paint2_linear)"/>
<path d="M255.891 351.766L264.438 350.906L272.828 349.406L281.016 347.313L288.922 344.656L296.516 341.469L303.766 337.781L310.969 333.453L317.469 328.891L323.859 323.672L331.734 316.063L336.906 310.141L341.938 303.5L346.359 296.672L350.156 289.719L353.656 282.078L356.516 274.359L358.75 266.625L360.484 258.203L361.531 250.047L361.984 241.234L361.75 232.703L360.875 224.25L359.391 216.094L357.25 207.922L354.531 200.031L351.391 192.703L347.609 185.453L343.234 178.344L338.516 171.828L333.328 165.625L327.828 159.922L317.359 150.984L306.063 143.469L293.891 137.313L280.734 132.578L267.125 129.5L252.797 128.078L238.266 128.469L224.188 130.578L210.719 134.375L198.078 139.656L186.203 146.391L175.172 154.516L165.375 163.719L156.75 174.016L149.313 185.422L143.391 197.469L138.891 210.578L136.063 224.125L135 238.125L135.469 249.688L137.625 263.672L141.453 277.078L146.859 289.719L153.625 301.406L161.844 312.297L167.219 318.141L173.203 323.781L183.922 332.109L195.719 339.172L208.109 344.703L221.594 348.828L235.469 351.266L248.672 352.016L255.891 351.766ZM245.594 320.875L241.203 320.703L233 319.594L225.031 317.703L217.422 315.078L210.141 311.766L203.281 307.766L196.859 303.188L190.906 298.016L184.25 290.844L179.547 284.516L175.484 277.781L172.078 270.625L169.359 263.125L167.391 255.297L166.234 247.203L165.891 239.875L166.703 228.563L169.328 216.75L173.641 205.641L179.5 195.375L186.75 186.156L192.313 180.594L196.875 176.734L206.641 170.094L217.406 164.875L228.969 161.203L241.188 159.219L251.781 158.969L264.141 160.344L275.891 163.484L286.891 168.219L296.984 174.406L306.047 181.922L313.938 190.625L320.484 200.391L325.578 211.047L329.078 222.469L330.828 234.531L330.688 246.984L328.688 259.047L324.953 270.422L319.625 281.031L312.875 290.625L308.953 295.109L303.281 300.563L293.875 307.688L283.438 313.422L272.141 317.656L260.125 320.234L245.594 321.234V320.875Z" stroke="url(#paint3_linear)" stroke-width="6" stroke-linecap="round"/>
<path d="M378.5 90C392 90 403 101.5 403 115.6C402.9 129.7 391.8 141.1 378.3 141C365 140.9 354.1 129.5 354.1 115.7C354 101.6 365 90 378.5 90Z" fill="url(#paint4_linear)"/>
<path d="M383.156 137.438L387.141 136.078L390.719 133.953L393.828 131.188L396.469 127.734L398.406 123.875L399.625 119.547L399.984 115.656L399.406 110.484L398.031 106.234L396.016 102.547L393.219 99.188L390.016 96.563L386.328 94.578L382.234 93.359L378.5 93.016L374.75 93.359L370.672 94.578L367.016 96.563L363.719 99.297L361.078 102.516L358.969 106.391L357.641 110.547L357.109 115.172L357.422 119.594L358.594 123.844L360.484 127.656L363.031 131.047L366.094 133.828L369.672 135.984L373.609 137.406L378.266 138L383.156 137.438Z" stroke="url(#paint5_linear)" stroke-width="6" stroke-linecap="round"/>
<defs>
<linearGradient id="paint0_linear" x1="204.394" y1="394.353" x2="204.394" y2="88.74" gradientUnits="userSpaceOnUse">
<stop/>
<stop offset="1" stop-color="#050505"/>
</linearGradient>
<linearGradient id="paint1_linear" x1="205.403" y1="389.025" x2="205.403" y2="97.894" gradientUnits="userSpaceOnUse">
<stop stop-color="#444444"/>
<stop offset="1" stop-color="#494949"/>
</linearGradient>
<linearGradient id="paint2_linear" x1="227.941" y1="307.305" x2="227.941" y2="165.711" gradientUnits="userSpaceOnUse">
<stop/>
<stop offset="1" stop-color="#363636"/>
</linearGradient>
<linearGradient id="paint3_linear" x1="228.415" y1="304.837" x2="228.415" y2="169.953" gradientUnits="userSpaceOnUse">
<stop stop-color="#464646"/>
<stop offset="1" stop-color="#6F6F6F"/>
</linearGradient>
<linearGradient id="paint4_linear" x1="374.235" y1="130.425" x2="374.235" y2="99.027" gradientUnits="userSpaceOnUse">
<stop/>
<stop offset="1" stop-color="#787878"/>
</linearGradient>
<linearGradient id="paint5_linear" x1="374.334" y1="129.877" x2="374.334" y2="99.968" gradientUnits="userSpaceOnUse">
<stop stop-color="#3D3D3D"/>
<stop offset="1" stop-color="#959595"/>
</linearGradient>
</defs>
</svg>
