<svg width="90" height="90" viewBox="0 0 90 90" fill="none" xmlns="http://www.w3.org/2000/svg">
<path d="M90 43.841C90 68.054 70.221 87.682 45.818 87.682C38.071 87.682 30.793 85.702 24.461 82.227L0 90L7.975 66.478C3.952 59.872 1.635 52.124 1.635 43.841C1.635 19.628 21.416 0 45.818 0C70.223 0 90 19.628 90 43.841ZM45.818 6.982C25.334 6.982 8.672 23.517 8.672 43.841C8.672 51.906 11.301 59.375 15.748 65.451L11.107 79.14L25.382 74.603C31.247 78.454 38.273 80.7 45.819 80.7C66.3 80.7 82.965 64.167 82.965 43.843C82.965 23.519 66.301 6.982 45.818 6.982ZM68.129 53.938C67.856 53.491 67.135 53.221 66.053 52.684C64.969 52.147 59.643 49.546 58.653 49.189C57.66 48.831 56.936 48.651 56.215 49.726C55.494 50.802 53.418 53.221 52.785 53.938C52.153 54.657 51.522 54.747 50.438 54.209C49.356 53.672 45.867 52.536 41.73 48.876C38.511 46.028 36.337 42.512 35.705 41.435C35.074 40.36 35.639 39.779 36.18 39.244C36.668 38.762 37.264 37.989 37.805 37.362C38.348 36.734 38.528 36.287 38.887 35.569C39.25 34.852 39.069 34.225 38.797 33.686C38.527 33.149 36.359 27.861 35.457 25.709C34.555 23.559 33.654 23.917 33.021 23.917C32.39 23.917 31.667 23.827 30.945 23.827C30.223 23.827 29.049 24.096 28.056 25.171C27.064 26.247 24.267 28.847 24.267 34.134C24.267 39.422 28.146 44.531 28.689 45.247C29.23 45.963 36.179 57.167 47.189 61.47C58.2 65.771 58.2 64.336 60.186 64.156C62.17 63.977 66.592 61.557 67.498 59.049C68.398 56.537 68.398 54.386 68.129 53.938Z" fill="url(#paint0_linear)"/>
<path d="M24.688 79.016L29.906 81.531L34.688 83.188L39.875 84.266L45.031 84.688L51.141 84.344L55.078 83.656L58.953 82.563L64.609 80.188L68.047 78.234L72.781 74.719L76.922 70.609L80.531 65.813L83.344 60.688L85.438 55.016L86.641 49.141L86.984 43.969L86.656 38.594L85.453 32.734L84.172 28.953L81.484 23.438L79.484 20.328L75.594 15.641L71.25 11.734L68 9.43799L62.813 6.64099L57.047 4.54699L51 3.32799L46.953 3.01599L42.688 3.12499L36.469 4.06299L32.594 5.15599L27.094 7.45299L20.344 11.75L15.984 15.688L13.422 18.625L9.125 25.266L6.203 32.641L4.75 40.703L4.953 48.844L6.828 57.031L8.313 60.766L11.219 66.219L4.75 85.344L24.688 79.016ZM36.203 82.563L29.359 80.219L25.063 77.859L10.25 82.563L7.656 79.922L12.422 65.844L10.453 62.734L8.469 58.516L6.641 52.609L5.859 47.875L5.672 42.797L6.266 36.828L7.203 32.891L9.219 27.438L11.984 22.375L15.469 17.75L19.547 13.703L24.188 10.266L29.297 7.49999L34.844 5.49999L40.688 4.29699L45.891 3.96899L54.844 4.99999L62.313 7.49999L69.031 11.328L74.859 16.328L79.625 22.359L83.172 29.234L85.344 36.797L85.969 44.875L84.953 52.859L82.422 60.25L78.547 66.922L73.5 72.703L67.453 77.406L62.313 80.203L56.781 82.203L50.891 83.406L43.531 83.656L36.203 82.563ZM59.969 61.156L62.172 60.203L63.906 58.938L64.641 57.969L65.188 55.797L59.844 53.031L57.984 52.313L54.453 56.625L51.188 57.781L45.125 55.016L39.719 51.156L35.766 46.859L32.359 41.641L32.656 38.797L35.688 35.125L35.844 34.781L32.719 27L32.641 26.906L31.094 26.859L30.625 27.016L29.125 28.5L28.094 30.188L27.406 32.438L27.281 34.484L27.672 36.844L28.563 39.25L33.359 46.625L39.328 53.016L45.156 57.188L53.234 60.484L57.938 61.469L59.969 61.156Z" stroke="url(#paint1_linear)" stroke-width="6" stroke-linecap="round"/>
<defs>
<linearGradient id="paint0_linear" x1="37.059" y1="71.337" x2="37.059" y2="15.931" gradientUnits="userSpaceOnUse">
<stop stop-color="#E1E1E1"/>
<stop offset="1" stop-color="white"/>
</linearGradient>
<linearGradient id="paint1_linear" x1="37.242" y1="70.371" x2="37.242" y2="17.59" gradientUnits="userSpaceOnUse">
<stop/>
<stop offset="1"/>
</linearGradient>
</defs>
</svg>
